# xmcd
#
# Track frame offsets: 
#        150
#        20516
#        39586
#        62739
#        82220
#        106771
#        130059
#        151160
#        180409
#        205168
#        234957
#        257894
#
# Disc length: 3962 seconds
#
# Revision: 1
# Processed by: cddbd v1.5.2PL0 Copyright (c) Steve Scherf et al.
# Submitted via: ExactAudioCopy v0.99pb4
#
DISCID=950f780c
DTITLE=Thai Thanh - Nuoc Non Ngan Dam Ra Di 
DYEAR=1900
DGENRE=Blues
TTITLE0=Thuong Ai Nho Ai
TTITLE1=Nho Nguoi Ra Di
TTITLE2=Nguoi Ve
TTITLE3=Ben Cau Bien Gioi
TTITLE4=Nuoc Non Ngan Dam Ra Di
TTITLE5=Cuu Long Giang
TTITLE6=Con Me Chieu
TTITLE7=So Bien
TTITLE8=Duong Dai Mot Bong
TTITLE9=Nhung Chiec La Ua
TTITLE10=Em Le Chua Nay
TTITLE11=Tieng Hat To
EXTD=
EXTT0=
EXTT1=
EXTT2=
EXTT3=
EXTT4=
EXTT5=
EXTT6=
EXTT7=
EXTT8=
EXTT9=
EXTT10=
EXTT11=
PLAYORDER=
